<?xml version="1.0" encoding="UTF-8"?>
<svg id="Layer_1" data-name="Layer 1" xmlns="http://www.w3.org/2000/svg" viewBox="0 0 512 426.67">
  <defs>
    <style>
      .cls-1 {
        fill: #fff;
        stroke-width: 0px;
      }
    </style>
  </defs>
  <path class="cls-1" d="m85.33,192h128v42.67H85.33v-42.67Zm298.67-42.67h-42.67v42.67h-42.67v42.67h42.67v42.67h42.67v-42.67h42.67v-42.67h-42.67v-42.67Zm128-21.33v298.67H0V128c0-35.35,28.65-64,64-64V0h170.67v64h42.67V0h170.67v64c35.35,0,64,28.65,64,64Zm-42.67,0c0-11.78-9.55-21.33-21.33-21.33h-42.67V42.67h-85.33v64h-128V42.67h-85.33v64h-42.67c-11.78,0-21.33,9.55-21.33,21.33v256h426.67V128Z"/>
</svg>