<?xml version="1.0" encoding="utf-8"?>
<!-- Generator: Adobe Illustrator 27.8.1, SVG Export Plug-In . SVG Version: 6.00 Build 0)  -->
<svg version="1.1" id="Ebene_1" xmlns="http://www.w3.org/2000/svg" xmlns:xlink="http://www.w3.org/1999/xlink" x="0px" y="0px"
	 viewBox="0 0 48 48" style="enable-background:new 0 0 48 48;" xml:space="preserve">
<style type="text/css">
	.st0{fill:#FFFFFF;}
</style>
<path class="st0" d="M47,25.3c-0.1,0.9-0.2,1.7-0.4,2.6c-1.3,6.9-5,12.2-10.9,15.8c-3.9,2.4-8.1,3.4-12.7,3.2
	c-6.5-0.3-12-2.9-16.3-7.8c-3.3-3.7-5.2-8-5.6-12.9C0.5,19,2.8,12.7,7.9,7.6c3.4-3.4,7.6-5.5,12.4-6.3c0.8-0.1,1.5-0.2,2.3-0.3
	c0.9,0,1.8,0,2.7,0C25.5,1,25.6,1,25.7,1c3.6,0.3,7,1.3,10,3.2c6,3.7,9.6,8.9,10.9,15.8c0.2,0.9,0.2,1.7,0.4,2.6
	C47,23.5,47,24.4,47,25.3z M24.1,2.5c-11.8,0-21.5,9.6-21.5,21.4c0,11.8,9.6,21.5,21.4,21.5c11.8,0,21.5-9.6,21.5-21.5
	C45.5,12.2,35.9,2.5,24.1,2.5z"/>
<path class="st0" d="M23.3,16.9c0,1.2,0,2.4,0,3.6c0,0.3-0.1,0.4-0.3,0.5c-0.8,0.3-1.4,0.9-1.7,1.7c-0.1,0.3-0.3,0.4-0.6,0.4
	c-1.6,0-3.1,0-4.7,0c-0.2,0-0.4,0-0.6,0.1c-0.4,0.1-0.5,0.4-0.5,0.7c0,0.4,0.2,0.6,0.5,0.7c0.2,0,0.4,0,0.6,0c1.5,0,3.1,0,4.6,0
	c0.3,0,0.5,0.1,0.6,0.4c0.5,1.3,1.8,2.1,3.2,1.9c1.4-0.2,2.5-1.3,2.6-2.6c0.2-1.4-0.6-2.7-1.9-3.2c-0.3-0.1-0.4-0.3-0.4-0.6
	c0-2.3,0-4.6,0-6.9c0-0.2,0-0.4,0-0.6c-0.1-0.4-0.3-0.6-0.7-0.6c-0.4,0-0.7,0.2-0.7,0.6c0,0.2,0,0.4,0,0.5
	C23.3,14.6,23.3,15.8,23.3,16.9z"/>
<path class="st0" d="M12.1,36.5c0.5,0,1.3-0.8,1.3-1.3c0-0.6-0.7-0.9-1.1-0.6c-0.3,0.2-0.6,0.5-0.8,0.8
	C11.1,35.9,11.5,36.5,12.1,36.5z"/>
<path class="st0" d="M24.8,40.4C24.8,40.4,24.8,40.4,24.8,40.4c0-0.1,0-0.3,0-0.4c-0.1-0.5-0.3-0.7-0.7-0.8c-0.4,0-0.7,0.3-0.8,0.8
	c0,0.3,0,0.6,0,0.8c0,0.4,0.3,0.6,0.7,0.7c0.4,0,0.7-0.2,0.8-0.7C24.8,40.7,24.8,40.5,24.8,40.4z"/>
<path class="st0" d="M7.7,24.6c0,0,0.2,0,0.3,0c0.4-0.1,0.7-0.3,0.7-0.7c0-0.4-0.2-0.7-0.7-0.8c-0.2,0-0.4,0-0.6,0
	c-0.6,0-1,0.3-1,0.8c0,0.5,0.3,0.8,1,0.8C7.5,24.6,7.5,24.6,7.7,24.6z"/>
<path class="st0" d="M40.5,24.6c0.2,0,0.3,0,0.5,0c0.5-0.1,0.7-0.3,0.7-0.8c0-0.4-0.3-0.7-0.7-0.7c-0.3,0-0.7,0-1,0
	c-0.4,0.1-0.5,0.3-0.5,0.7c0,0.4,0.2,0.6,0.6,0.7C40.1,24.6,40.3,24.6,40.5,24.6z"/>
<path class="st0" d="M36.7,35.9c-0.1-0.7-0.5-1-0.9-1.3c-0.3-0.2-0.7-0.2-0.9,0.1c-0.3,0.3-0.3,0.6-0.1,0.9c0.2,0.3,0.5,0.6,0.8,0.7
	c0.2,0.1,0.5,0.1,0.7,0C36.5,36.3,36.6,36,36.7,35.9z"/>
<path class="st0" d="M24.8,7.4c0-0.8-0.2-1.1-0.8-1.1c-0.5,0-0.8,0.4-0.8,1.1c0,0.8,0.2,1.1,0.8,1.1C24.6,8.5,24.8,8.2,24.8,7.4z"/>
<path class="st0" d="M12.8,13.2c0.1-0.1,0.4-0.2,0.5-0.4c0.1-0.2,0.1-0.6,0-0.7c-0.2-0.3-0.5-0.6-0.8-0.8c-0.2-0.1-0.5-0.1-0.7,0
	c-0.2,0.1-0.3,0.4-0.4,0.6C11.3,12.4,12.2,13.2,12.8,13.2z"/>
<path class="st0" d="M36.7,11.9c0-0.6-0.6-0.9-1.1-0.6c-0.3,0.2-0.7,0.5-0.9,0.9c-0.3,0.5,0.1,1.1,0.7,1.1
	C35.9,13.2,36.7,12.4,36.7,11.9z"/>
<path class="st0" d="M23.3,16.9c0-1.1,0-2.3,0-3.4c0-0.2,0-0.4,0-0.5c0.1-0.4,0.4-0.6,0.7-0.6c0.4,0,0.6,0.2,0.7,0.6
	c0,0.2,0,0.4,0,0.6c0,2.3,0,4.6,0,6.9c0,0.3,0.1,0.5,0.4,0.6c1.3,0.5,2,1.8,1.9,3.2c-0.2,1.3-1.3,2.4-2.6,2.6
	c-1.4,0.2-2.7-0.6-3.2-1.9c-0.1-0.3-0.3-0.4-0.6-0.4c-1.5,0-3.1,0-4.6,0c-0.2,0-0.4,0-0.6,0c-0.3-0.1-0.5-0.3-0.5-0.7
	c0-0.4,0.2-0.6,0.5-0.7c0.2-0.1,0.4-0.1,0.6-0.1c1.6,0,3.1,0,4.7,0c0.3,0,0.5-0.1,0.6-0.4c0.3-0.8,0.9-1.4,1.7-1.7
	c0.3-0.1,0.4-0.2,0.3-0.5C23.3,19.3,23.3,18.1,23.3,16.9z M22.5,23.8c0,0.9,0.6,1.6,1.5,1.6c0.8,0,1.5-0.6,1.6-1.5
	c0-0.8-0.6-1.5-1.4-1.6C23.3,22.3,22.5,23,22.5,23.8z"/>
<path class="st0" d="M12.1,36.5c-0.6,0-1-0.6-0.6-1.1c0.2-0.3,0.5-0.6,0.8-0.8c0.5-0.3,1.1,0.1,1.1,0.6
	C13.4,35.7,12.6,36.5,12.1,36.5z"/>
<path class="st0" d="M24.8,40.4c0,0.1,0,0.3,0,0.4c-0.1,0.4-0.4,0.7-0.8,0.7c-0.4,0-0.7-0.2-0.7-0.7c0-0.3,0-0.6,0-0.8
	c0-0.5,0.3-0.8,0.8-0.8c0.4,0,0.7,0.3,0.7,0.8C24.8,40.1,24.8,40.2,24.8,40.4C24.8,40.4,24.8,40.4,24.8,40.4z"/>
<path class="st0" d="M7.7,24.6c-0.2,0-0.2,0-0.3,0c-0.7,0-1-0.3-1-0.8c0-0.5,0.3-0.7,1-0.8c0.2,0,0.4,0,0.6,0
	c0.4,0.1,0.7,0.4,0.7,0.8c0,0.4-0.3,0.7-0.7,0.7C7.8,24.6,7.7,24.6,7.7,24.6z"/>
<path class="st0" d="M40.5,24.6c-0.1,0-0.3,0-0.5-0.1c-0.4-0.1-0.6-0.3-0.6-0.7c0-0.4,0.2-0.7,0.5-0.7c0.3-0.1,0.7-0.1,1,0
	c0.4,0,0.7,0.3,0.7,0.7c0,0.4-0.3,0.7-0.7,0.8C40.8,24.6,40.7,24.6,40.5,24.6z"/>
<path class="st0" d="M36.7,35.9c-0.1,0.1-0.2,0.4-0.4,0.5c-0.2,0.1-0.6,0.1-0.7,0c-0.3-0.2-0.5-0.5-0.8-0.7
	c-0.2-0.3-0.2-0.7,0.1-0.9c0.3-0.3,0.6-0.3,0.9-0.1C36.2,34.9,36.6,35.2,36.7,35.9z"/>
<path class="st0" d="M24.8,7.4c0,0.8-0.2,1.1-0.8,1.1c-0.5,0-0.8-0.4-0.8-1.1c0-0.8,0.2-1.1,0.8-1.1C24.6,6.3,24.8,6.6,24.8,7.4z"/>
<path class="st0" d="M12.8,13.2c-0.6,0-1.5-0.8-1.4-1.3c0-0.2,0.2-0.5,0.4-0.6c0.2-0.1,0.6-0.1,0.7,0c0.3,0.2,0.6,0.5,0.8,0.8
	c0.1,0.2,0.1,0.5,0,0.7C13.2,13,12.9,13.2,12.8,13.2z"/>
<path class="st0" d="M36.7,11.9c0,0.5-0.8,1.3-1.3,1.3c-0.5,0-1-0.6-0.7-1.1c0.2-0.3,0.5-0.7,0.9-0.9C36.1,11,36.7,11.4,36.7,11.9z"
	/>
<path class="st0" d="M22.5,23.8c0-0.8,0.8-1.5,1.6-1.5c0.8,0,1.5,0.8,1.4,1.6c0,0.8-0.7,1.5-1.6,1.5C23.2,25.4,22.5,24.7,22.5,23.8z
	"/>
</svg>
