<?xml version="1.0" encoding="utf-8"?>
<!-- Generator: Adobe Illustrator 27.8.1, SVG Export Plug-In . SVG Version: 6.00 Build 0)  -->
<svg version="1.1" id="Ebene_1" xmlns="http://www.w3.org/2000/svg" xmlns:xlink="http://www.w3.org/1999/xlink" x="0px" y="0px"
	 viewBox="0 0 44.2 44.2" style="enable-background:new 0 0 44.2 44.2;" xml:space="preserve">
<style type="text/css">
	.st0{fill:#FFFFFF;}
</style>
<path class="st0" d="M0.3,42.9c0.3-1.2,0.6-2.5,0.9-3.7c0.6-2.5,1.2-5.1,1.8-7.6c0.1-0.3,0.2-0.6,0.5-0.8
	C12.9,21.3,22.3,12,31.6,2.6c2.6-2.6,6.4-2.9,9.2-0.9c3.7,2.6,4.1,7.7,0.8,10.9c-1.9,2-3.9,3.9-5.8,5.8
	c-7.4,7.4-14.8,14.8-22.2,22.2c-0.3,0.3-0.7,0.5-1,0.6c-3.7,0.9-7.3,1.8-11,2.6c-0.1,0-0.2,0.1-0.2,0.1c-0.3,0-0.7,0-1,0
	C0.3,43.6,0.3,43.3,0.3,42.9z M9.3,35c1.3-0.1,2.4-0.3,3.6-0.4c0.1,0,0.3-0.2,0.4-0.3c4.2-4.2,8.4-8.4,12.6-12.6
	c1.6-1.6,3.1-3.1,4.7-4.7c0.4-0.4,0.9-0.4,1.2-0.1c0.3,0.3,0.3,0.8-0.1,1.2c-0.3,0.3-0.6,0.6-0.9,0.9C25.3,24.5,19.9,30,14.4,35.4
	c-0.1,0.1-0.3,0.3-0.3,0.4c-0.1,0.7-0.2,1.5-0.3,2.2c7.2-7.2,14.5-14.5,21.7-21.6c-2.5-2.5-5.1-5.1-7.6-7.6
	C20.7,16,13.5,23.2,6.3,30.4c0.5-0.1,1.2-0.2,1.8-0.2c0.3,0,0.5-0.2,0.8-0.4c5.7-5.7,11.3-11.3,17-17c0.1-0.1,0.2-0.2,0.4-0.3
	c0.3-0.2,0.7-0.2,1,0c0.3,0.3,0.3,0.7,0.1,1c-0.1,0.1-0.2,0.3-0.3,0.4c-5.7,5.7-11.4,11.4-17,17c-0.1,0.1-0.3,0.3-0.3,0.5
	C9.5,32.6,9.4,33.8,9.3,35z M8,31.8C6.9,31.9,6,32,5,32.1c-0.3,0-0.4,0.1-0.5,0.4c-0.4,1.6-0.8,3.2-1.1,4.8c-0.2,1-0.5,2.1-0.8,3.2
	c0.5-0.5,1-1.2,1.7-0.5c0.7,0.7-0.1,1.1-0.5,1.7c0.7-0.2,1.2-0.3,1.8-0.4c2.1-0.5,4.2-1,6.2-1.5c0.2,0,0.4-0.2,0.4-0.3
	c0.1-1.1,0.2-2.1,0.4-3.2c-0.2,0-0.3,0-0.5,0c-1.1,0.1-2.2,0.2-3.4,0.4c-0.7,0.1-1.1-0.3-1-1c0-0.3,0.1-0.6,0.1-0.9
	C7.8,33.8,7.9,32.8,8,31.8z M41.2,10.7c1.6-1.9,1.4-5.2-0.5-7.1c-1.9-1.9-5.2-2.1-7.1-0.5C36.1,5.6,38.6,8.2,41.2,10.7z M40,12
	c-2.6-2.6-5.2-5.2-7.7-7.7c-0.3,0.3-0.7,0.7-1,1c2.6,2.6,5.1,5.1,7.7,7.7C39.3,12.7,39.7,12.3,40,12z M37.8,14.2
	c-2.6-2.6-5.2-5.2-7.8-7.8c-0.3,0.3-0.7,0.7-1,1c2.6,2.6,5.2,5.1,7.7,7.7C37.1,14.9,37.5,14.6,37.8,14.2z"/>
</svg>
