<?xml version="1.0" encoding="UTF-8"?>
<svg id="Ebene_1" data-name="Ebene 1" xmlns="http://www.w3.org/2000/svg" viewBox="0 0 290.95 244.18">
  <defs>
    <style>
      .cls-1 {
        fill: #fff;
        stroke-width: 0px;
      }
    </style>
  </defs>
  <path class="cls-1" d="m290.88,84.14c-.91,5.12-1.54,10.31-2.8,15.37-5.47,21.81-16.9,40.85-34.63,56.34-16.69,14.54-34.35,28.2-51.6,42.18-18.3,14.8-36.6,29.47-54.97,44.2-.77.63-1.54,1.26-2.45,1.96-9.75-7.97-19.42-15.87-29.1-23.77-23.77-19.48-47.6-38.95-71.37-58.43C21.3,143.39,5.88,120.88,1.32,93.44-3.72,63.15,5.53,36.4,31.54,16.04c31.27-24.47,77.96-20.36,104.6,8.35,2.94,3.22,5.54,6.7,8.41,10.12,2.59-3.1,5.05-6.32,7.85-9.36C173.86,1.94,209.2-6.15,240.19,5.42c17.6,6.58,30.22,18.21,39.12,33.2,6.31,10.62,9.68,22,11.08,33.89.07.63.35,1.26.56,1.96v9.74l-.07-.06Zm-146.46-25.17c-1.75-3.67-3.3-6.89-4.77-10.12-4.63-9.93-11.22-18.53-20.4-25.48-21.8-16.63-55.11-17.89-77.05-2.15C16.26,39.82,7.42,64.73,12.68,93.56c4.49,24.47,18.65,44.45,38.91,61.02,28.04,22.95,56.16,45.97,84.2,68.92,2.87,2.34,5.75,4.68,8.69,7.08.84-.63,1.61-1.2,2.31-1.77,30.43-24.47,60.79-48.94,91.21-73.35,14.3-11.44,25.73-24.79,33.02-40.85,6.24-13.66,10.03-27.7,7.99-42.68-2.24-16.12-8.41-30.67-20.68-42.68-14.23-13.97-31.97-20.68-52.93-18.72-25.38,2.47-43.4,14.86-54.55,35.41-2.24,4.11-4.07,8.41-6.31,13.09l-.14-.06Z"/>
</svg>