<?xml version="1.0" encoding="UTF-8"?>
<svg id="Ebene_1" data-name="Ebene 1" xmlns="http://www.w3.org/2000/svg" viewBox="0 0 46.35 36.77">
  <defs>
    <style>
      .cls-1 {
        fill: #fff;
        stroke-width: 0px;
      }
    </style>
  </defs>
  <path class="cls-1" d="m46.35,36.22c-.26.44-.65.55-1.14.55H1.13c-.88,0-1.13-.25-1.13-1.14V1.14C0,.26.25,0,1.13,0h44.08c.5,0,.88.12,1.14.55v35.67Zm-44.72-1.09h43.07V1.64H1.63s0,33.49,0,33.49Z"/>
  <path class="cls-1" d="m32,15.53c-2.44,2.68-4.87,5.34-7.32,8.02.86.86,1.71,1.7,2.55,2.54.38.38.77.76,1.15,1.15.44.45.48.92.13,1.27-.35.35-.82.3-1.27-.15l-7.71-7.71c-.12-.12-.2-.27-.31-.41-1.64,1.45-3.2,2.82-4.77,4.19-2.71,2.38-5.41,4.76-8.12,7.15-.12.11-.25.22-.4.29-.34.18-.65.09-.91-.17-.26-.27-.3-.59-.11-.91.09-.15.23-.28.36-.4,4.38-3.86,8.76-7.72,13.14-11.57.65-.57.97-.56,1.58.05,1.17,1.17,2.34,2.35,3.54,3.55.16-.17.29-.3.42-.44,2.38-2.61,4.76-5.21,7.14-7.82.67-.73.98-.75,1.73-.07,3.01,2.76,6.03,5.52,9.04,8.29.13.12.27.25.36.4.21.34.16.67-.11.95-.26.26-.58.32-.91.15-.16-.08-.29-.21-.43-.33-2.81-2.58-5.63-5.16-8.44-7.73-.1-.09-.2-.17-.33-.28h0Z"/>
  <path class="cls-1" d="m17.23,13.23c0,2.43-1.98,4.43-4.41,4.45-2.44.02-4.48-2-4.48-4.43s2.01-4.44,4.42-4.46c2.43-.02,4.46,2,4.47,4.44Zm-7.28.02c0,1.56,1.3,2.86,2.85,2.84,1.55-.01,2.85-1.33,2.84-2.86-.01-1.56-1.3-2.84-2.86-2.83-1.57,0-2.83,1.28-2.83,2.85Z"/>
</svg>