<?xml version="1.0" encoding="UTF-8"?>
<svg xmlns="http://www.w3.org/2000/svg" viewBox="0 0 155 31.01">
  <defs>
    <style>
      .cls-1 {
        fill: #232369;
        stroke-width: 0px;
      }
    </style>
  </defs>
  <g id="Grafik">
    <g id="links">
      <polygon class="cls-1" points="26 4.4 3.45 4.4 1.8 2.45 0 .11 26 .11 26 4.4"/>
      <polygon class="cls-1" points="26 10.51 8.46 10.35 4.97 6.22 26 6.22 26 10.51"/>
      <polygon class="cls-1" points="26 16.68 13.93 16.84 11.98 14.53 10.2 12.39 26 12.39 26 16.68"/>
    </g>
    <polygon class="cls-1" points="129 4.29 151.55 4.29 153.19 2.34 155 0 129 0 129 4.29"/>
    <polygon class="cls-1" points="129 10.4 146.54 10.24 150.03 6.11 129 6.11 129 10.4"/>
    <polygon class="cls-1" points="129 16.57 141.07 16.73 143.01 14.42 144.8 12.28 129 12.28 129 16.57"/>
  </g>
  <g id="Text">
    <g>
      <path class="cls-1" d="m30.25.62h8.1c1.07,0,1.97.18,2.71.53.73.35,1.33.79,1.78,1.32.45.53.78,1.11.98,1.74.2.63.3,1.22.3,1.78,0,.95-.15,1.78-.45,2.47-.3.7-.73,1.28-1.28,1.74-.55.46-1.2.81-1.96,1.03-.76.23-1.58.34-2.48.34h-2.86v4.75h-4.84V.62Zm4.84,7.22h1.87c.31,0,.62-.01.92-.03.31-.02.58-.09.82-.2.24-.11.44-.28.59-.51.15-.23.23-.54.23-.94,0-.35-.06-.63-.19-.84-.12-.21-.29-.36-.51-.46-.21-.1-.46-.17-.74-.19-.28-.02-.56-.03-.86-.03h-2.16v3.19Z"/>
      <path class="cls-1" d="m45.75.62h4.84v15.71h-4.84V.62Z"/>
      <path class="cls-1" d="m53.41.81h4.84v11.68h6.95v4.03h-11.79V.81Z"/>
      <path class="cls-1" d="m71.45.81h4.73l5.72,15.71h-5.02l-.66-2.24h-4.99l-.7,2.24h-4.86l5.79-15.71Zm3.81,10.1l-1.41-4.84h-.04l-1.52,4.84h2.97Z"/>
      <path class="cls-1" d="m84.67,4.65h-4.4V.62h13.64v4.03h-4.4v11.68h-4.84V4.65Z"/>
      <path class="cls-1" d="m109.81,10.26c0,2.19-.59,3.81-1.76,4.86-1.17,1.06-2.97,1.58-5.39,1.58s-4.22-.53-5.4-1.58c-1.18-1.06-1.77-2.68-1.77-4.86V.62h4.84v8.56c0,.4.01.81.03,1.23.02.43.11.81.25,1.17.15.35.38.64.7.87.32.23.78.34,1.36.34s1.01-.11,1.32-.34c.31-.23.54-.52.68-.87s.23-.74.25-1.17c.02-.43.03-.84.03-1.23V.62h4.84v9.64Z"/>
      <path class="cls-1" d="m116.81,11.24c0,.38.06.73.18,1.03.18.47.49.78.95.92.46.15.91.22,1.36.22.19,0,.4-.02.64-.06.24-.04.46-.11.66-.22s.37-.26.51-.44c.13-.18.2-.42.2-.72,0-.21-.05-.38-.15-.52-.1-.14-.28-.27-.53-.4-.25-.12-.59-.26-1.03-.4s-1-.3-1.67-.5c-.62-.18-1.24-.36-1.88-.56-.64-.2-1.21-.46-1.72-.79-.51-.33-.92-.75-1.24-1.25-.32-.51-.48-1.16-.48-1.95,0-.91.18-1.69.54-2.34.36-.65.83-1.19,1.42-1.62.59-.43,1.26-.74,2.02-.94.76-.2,1.55-.3,2.35-.3.85,0,1.67.09,2.44.26.78.18,1.47.47,2.07.87.6.4,1.09.93,1.45,1.58.37.65.56,1.46.59,2.41h-4.58c.04-.29.01-.54-.1-.75-.11-.21-.27-.37-.47-.51-.21-.15-.43-.25-.68-.31-.25-.06-.5-.09-.75-.09-.16,0-.34.01-.55.04-.21.03-.4.08-.57.15-.18.07-.32.18-.44.32-.12.14-.18.32-.18.54.01.28.16.51.43.69.27.18.62.34,1.04.48.43.14.91.27,1.44.4.54.12,1.08.26,1.64.41.56.16,1.1.35,1.63.57.53.22,1,.5,1.42.85s.75.77,1,1.28c.25.51.37,1.12.37,1.84,0,1.03-.21,1.88-.64,2.57-.43.69-.98,1.24-1.67,1.66-.69.42-1.47.72-2.33.9-.87.18-1.74.28-2.62.28-.29,0-.67-.02-1.12-.07-.45-.04-.94-.14-1.45-.29s-1.03-.34-1.54-.59c-.51-.25-.98-.59-1.39-1.01-.41-.43-.75-.94-1.01-1.54-.26-.6-.4-1.32-.4-2.16h4.84Z"/>
    </g>
    <g>
      <path class="cls-1" d="m22.18,30.56h-6.23l2.91-10.72h5.05c1.4,0,2.42.22,3.07.65.55.37.83.91.83,1.6,0,.65-.24,1.26-.72,1.83-.34.41-.71.72-1.13.95.45.14.79.38,1.02.72.24.36.36.75.36,1.19,0,.16-.02.34-.05.55-.2,1.14-.74,1.97-1.61,2.48-.87.51-2.04.76-3.5.76Zm.19-4.48h-1.88l-.41,1.98h2.35c.48,0,.86-.07,1.14-.21.28-.14.55-.78.55-.78,0,0-.07-.52-.21-.66-.15-.15-.35-.24-.59-.28s-.56-.05-.95-.05Zm.77-3.74h-1.9l-.41,1.78h2.24c.35,0,.65-.08.9-.23.24-.16.39-.39.44-.69,0-.38-.1-.61-.31-.71-.21-.1-.53-.15-.95-.15Z"/>
      <path class="cls-1" d="m36.26,22.93l-1.35,7.77h-2.83l.2-1.13c-.31.35-.61.62-.91.82-.3.19-.62.33-.95.41-.33.08-.72.12-1.16.12-.7,0-1.24-.17-1.62-.51-.43-.38-.64-.98-.64-1.79,0-.23.02-.54.07-.93l.84-4.75h3.05l-.72,4.2c-.04.19-.07.37-.07.56,0,.31.07.53.22.65.15.13.37.19.68.19.43,0,.76-.15.99-.45.23-.3.39-.76.49-1.4l.67-3.75h3.04Z"/>
      <path class="cls-1" d="m36.28,28.15h2.89c0,.32.09.56.27.72.18.16.41.24.67.24.25,0,.48-.06.69-.19s.33-.31.37-.54c0-.24-.26-.44-.77-.58-.08-.02-.3-.08-.65-.17-.35-.08-.66-.17-.94-.26-.28-.09-.51-.17-.71-.26-.2-.08-.39-.19-.58-.33-.38-.28-.57-.7-.57-1.25,0-.12.01-.26.04-.41.11-.63.38-1.13.81-1.52s.93-.65,1.52-.81c.59-.16,1.18-.24,1.79-.24,1.27,0,2.19.23,2.74.7.15.13.27.27.37.43.1.16.16.33.2.5s.06.34.06.51c0,.14,0,.25-.01.32h-2.75c0-.17-.04-.31-.13-.43-.19-.24-.46-.36-.8-.36-.45,0-.73.18-.81.53,0,.22.25.4.74.54.49.14,1.02.29,1.58.44.56.15,1.04.37,1.43.66.39.29.58.7.58,1.22,0,.13-.01.28-.04.43-.1.55-.33,1.02-.71,1.43-.38.41-.9.72-1.56.94-.67.22-1.46.33-2.37.33-.97,0-2.2-.41-2.83-.76-.42-.23-.28-.34-.42-.8-.07-.23-.1-.49-.1-.78,0-.11,0-.2.01-.28Z"/>
      <path class="cls-1" d="m47.05,30.66h-3.04l1.35-7.77h3.05l-1.35,7.77Zm-1.52-8.75l.37-2.21h3.08l-.41,2.21h-3.04Z"/>
      <path class="cls-1" d="m48,30.55l1.35-7.77h2.79l-.2,1.22c.42-.48.86-.84,1.31-1.07.45-.24.96-.36,1.52-.36.77,0,1.36.17,1.77.5.46.39.7.99.7,1.82,0,.3-.03.63-.09.99l-.81,4.67h-3.05l.69-4.08c.05-.21.07-.4.07-.57,0-.59-.29-.89-.88-.89-.45,0-.78.13-.99.38-.21.26-.37.66-.46,1.21l-.69,3.95h-3.05Z"/>
      <path class="cls-1" d="m66.04,27.37h-5.85c-.01.09-.02.18-.02.26v.06c0,.17.02.32.07.44.06.17.16.31.3.43.25.22.54.33.89.33.24,0,.48-.06.71-.18.23-.12.42-.28.56-.5h2.94c-.4.89-1.03,1.54-1.89,1.95s-1.81.61-2.82.61c-.73,0-1.38-.12-1.96-.36-.57-.24-1.02-.6-1.33-1.07s-.48-1.05-.48-1.72c0-.29.03-.57.1-.85.14-.83.45-1.57.94-2.2s1.1-1.12,1.82-1.47c.73-.34,1.5-.52,2.32-.52.6,0,1.13.09,1.61.26.48.18.88.43,1.2.75.33.32.58.71.74,1.16.17.45.25.96.25,1.51,0,.36-.03.74-.1,1.12Zm-5.58-1.57h2.79c0-.26-.05-.5-.15-.7-.09-.21-.22-.37-.39-.49-.17-.12-.36-.17-.59-.17-.45,0-.82.12-1.11.36-.29.24-.47.58-.55,1Z"/>
      <path class="cls-1" d="m66.75,28.39h2.89c0,.32.09.56.27.72.18.16.41.24.67.24.25,0,.48-.06.69-.19s.33-.31.37-.54c0-.24-.26-.44-.77-.58-.08-.02-.3-.08-.65-.17-.35-.08-.66-.17-.94-.26-.28-.09-.51-.17-.71-.26-.2-.08-.39-.19-.58-.33-.38-.28-.57-.7-.57-1.25,0-.12.01-.26.04-.41.11-.63.38-1.13.81-1.52s.93-.65,1.52-.81c.59-.16,1.18-.24,1.79-.24,1.27,0,2.19.23,2.74.7.15.13.27.27.37.43.1.16.16.33.2.5s.06.34.06.51c0,.14,0,.25-.01.32h-2.75c0-.17-.04-.31-.13-.43-.19-.24-.46-.36-.8-.36-.45,0-.73.18-.81.53,0,.22.25.4.74.54.49.14,1.02.29,1.58.44.56.15,1.04.37,1.43.66.39.29.58.7.58,1.22,0,.13-.01.28-.04.43-.1.55-.33,1.02-.71,1.43-.38.41-.9.72-1.56.94-.67.22-1.46.33-2.37.33-.97,0-1.77-.18-2.41-.53-.42-.23-.71-.58-.85-1.03-.07-.23-.1-.49-.1-.78,0-.11,0-.2.01-.28Z"/>
      <path class="cls-1" d="m75.38,28.39h2.89c0,.32.09.56.27.72.18.16.41.24.67.24.25,0,.48-.06.69-.19.21-.13.33-.31.37-.54,0-.24-.26-.44-.77-.58-.08-.02-.3-.08-.65-.17-.35-.08-.66-.17-.94-.26-.28-.09-.51-.17-.71-.26-.2-.08-.39-.19-.58-.33-.38-.28-.57-.7-.57-1.25,0-.12.01-.26.04-.41.11-.63.38-1.13.81-1.52s.93-.65,1.52-.81c.59-.16,1.18-.24,1.79-.24,1.27,0,2.19.23,2.74.7.15.13.28.27.37.43.1.16.16.33.2.5.04.17.06.34.06.51,0,.14,0,.25-.02.32h-2.75c0-.17-.04-.31-.13-.43-.19-.24-.46-.36-.8-.36-.45,0-.73.18-.81.53,0,.22.25.4.74.54.49.14,1.02.29,1.58.44.56.15,1.04.37,1.43.66.39.29.58.7.58,1.22,0,.13-.01.28-.04.43-.1.55-.33,1.02-.71,1.43-.38.41-.9.72-1.56.94-.67.22-1.46.33-2.37.33-.97,0-1.77-.18-2.41-.53-.42-.23-.71-.58-.85-1.03-.07-.23-.1-.49-.1-.78,0-.11,0-.2.01-.28Z"/>
      <path class="cls-1" d="m87.65,30.41h-4.14l6.43-10.71h4.49l-.03,10.84h-2.89v-1.52h-3.22s-.63,1.39-.63,1.39Zm3.89-3.88v-3.57l-2.05,3.55,2.05.02Z"/>
      <path class="cls-1" d="m98.43,30.41h-3.11l2.33-7.73h2.76s-1.98,7.73-1.98,7.73Zm-.6-8.75l.68-1.96,2.7.03-.48,1.98-2.91-.05Z"/>
      <path class="cls-1" d="m99.02,30.17l2.59-7.53h2.75l-.48,1.49c.33-.63,1.11-1.52,1.65-1.68.69-.2,1.67,0,1.67,0l-.79,3.21-.39-.22c-.42,0-.85-.2-1.21-.18-.33.01-.98.31-1.18.65-.2.34-.58,1-.69,1.56l-.85,2.71h-3.08Z"/>
      <path class="cls-1" d="m114.72,25.43h-3.11c0-.35-.09-.62-.26-.81-.17-.19-.39-.29-.66-.29-.41,0-.75.15-1.03.45-.33.35-.56.91-.71,1.67-.03.39-.04.6-.04.62,0,.9.36,1.35,1.07,1.35.4,0,.73-.14.98-.41.17-.19.31-.43.41-.75h3.11c-.33,1.09-.93,1.89-1.8,2.42s-1.89.78-3.05.78c-.75,0-1.4-.12-1.97-.37-.57-.24-1.01-.6-1.33-1.08-.32-.48-.48-1.06-.48-1.74,0-.51.09-1.04.27-1.6.18-.55.43-1.04.77-1.48.48-.63,1.09-1.12,1.81-1.44.73-.33,1.52-.49,2.38-.49.68,0,1.3.1,1.85.29.55.2.99.51,1.32.94.33.43.5.97.5,1.6,0,.12,0,.23-.02.33Z"/>
      <path class="cls-1" d="m117.18,30.24l-3.25-.06,2.62-7.69h2.75l-.23,1.56c.33-.63.75-1.08,1.25-1.34.5-.27,1.11-.4,1.83-.4l-.55,3.08-.63-.09c-.36-.17-.69-.17-1.02-.17-.41,0-.76.36-.96.7"/>
      <path class="cls-1" d="m129.04,30.43h-3.18v-.84c-.48.39-.96.67-1.45.82-.49.15-1.04.23-1.66.23-.43,0-.83-.07-1.19-.2-.36-.13-.64-.33-.85-.61-.21-.27-.32-.61-.32-1.01,0-.36.08-.76.24-1.2.16-.44.44-.79.85-1.06.56-.35,1.2-.58,1.93-.68.73-.11,1.41-.21,2.04-.32.63-.11.97-.31,1.02-.62,0-.44-.29-.67-.87-.67-.65,0-1.05.26-1.2.79h-2.95c.16-.87.61-1.53,1.35-1.97.74-.44,1.85-.66,3.33-.66.9,0,1.6.08,2.1.24.5.16.85.39,1.04.68.19.29.29.65.29,1.08,0,.28-.04.68-.13,1.19l-.7,4.05c0,.22.1.42.32.59l-.02.15Zm-4.56-1.52c.51,0,.9-.18,1.17-.54s.44-.82.49-1.4c-.25.12-.61.23-1.09.33-.48.1-.82.21-1.03.32-.22.11-.35.32-.4.62,0,.44.29.66.86.66Z"/>
      <path class="cls-1" d="m133.77,22.85h1.29l-.33,1.76h-1.28l-1.05,5.92h-3.02l1.04-5.92h-1.03l.3-1.75h1.04c.11-.66.27-1.2.47-1.62.2-.42.45-.74.74-.97.28-.22.61-.37.99-.45.38-.08.84-.13,1.38-.13h2.05l-.35,1.98c-.4,0-1.4-.03-1.58,0-.18.04-.31.14-.42.31-.11.17-.19.46-.24.86Z"/>
      <path class="cls-1" d="m139.75,28.24l-.38,2.34c-.9.04-1.47.06-1.71.06-.64,0-.87-.01-1.23-.11s-.53-.17-.68-.4-.33-.4-.33-.83c0-.29.17-.99.27-1.61l.94-3.04-1.91-.05.33-1.76,2.19-.05.93-3.11,2.38.11-.91,2.97,1.04-.02-.35,1.91h-1.35l-.48,2.53c-.04.21-.07.37-.07.48,0,.22.06.37.18.44.07.05.16.09.26.1.1.02.29.02.58.02h.31Z"/>
    </g>
  </g>
</svg>